<?xml version="1.0" encoding="UTF-8"?>
<!DOCTYPE svg PUBLIC "-//W3C//DTD SVG 1.1//EN" "http://www.w3.org/Graphics/SVG/1.1/DTD/svg11.dtd">
<!-- Creator: CorelDRAW (Versão OEM) -->
<svg xmlns="http://www.w3.org/2000/svg" xml:space="preserve" width="297mm" height="210mm" version="1.1" style="shape-rendering:geometricPrecision; text-rendering:geometricPrecision; image-rendering:optimizeQuality; fill-rule:evenodd; clip-rule:evenodd"
viewBox="0 0 29700 21000"
 xmlns:xlink="http://www.w3.org/1999/xlink"
 xmlns:xodm="http://www.corel.com/coreldraw/odm/2003">
 <defs>
  <style type="text/css">
   <![CDATA[
    .fil0 {fill:#0A3110}
    .fil2 {fill:#2E7C03}
    .fil1 {fill:#FCBB01}
   ]]>
  </style>
 </defs>
 <g id="Camada_x0020_1">
  <metadata id="CorelCorpID_0Corel-Layer"/>
  <path class="fil0" d="M14392.03 9249.38l0 -2048.55c0,-314.5 1040.79,-158.48 1040.79,792.99 0,235.59 -2,394.1 -89.48,620.9 -125.95,326.59 -368.78,632.98 -737.68,666.59 -55.07,5.02 -88.73,11.19 -120.82,15 -55.39,6.6 -92.81,8.76 -92.81,-46.93zm-1387.73 -1718.14c0,95.48 49.26,148.68 148.68,148.68 184.67,0 104.44,-264.32 330.42,-264.32 83.42,0 115.64,122.34 115.64,214.76l0 3386.72c0,195.64 -35.44,345.5 -160.44,467.34 -80.48,78.46 -158.6,61.23 -202.98,111.79 -58.69,66.86 -25.33,180.82 82.57,180.82l1321.64 0c42.02,0 99.13,-50.3 99.13,-99.13 0,-240.4 -346.93,25.73 -346.93,-660.82l0 -1387.73c0,-109.38 220.5,-55.37 344.22,134.87 58.52,89.99 114.14,232.57 153.5,342.11 158.79,441.87 286.5,845.15 477.21,1273.98 125.74,282.77 304.85,521.89 542.67,712.9 399.59,320.95 1002.85,411.37 1522.67,146.88 128.33,-65.3 202.37,-136.18 296.36,-200.33 71.9,-49.08 333.56,-3.88 423.02,8.63 282.85,39.5 581.2,56.42 904.2,103.54 302.44,44.12 567.27,81.44 861.09,130.15 659.01,109.23 1397.45,292.23 2037.94,456.66 811.94,208.43 1851.28,571.43 2613.32,905.56 113.27,49.68 598.89,296.91 710.84,296.91 -1.77,-79.57 26.78,-44.76 -102.31,-128.97 -449.93,-293.47 -892.88,-509.61 -1384.26,-730.36 -332.14,-149.24 -684.81,-285.96 -1034.84,-402.46 -482.8,-160.7 -957.2,-292.92 -1463.37,-419.98 -623.88,-156.6 -1732.22,-358.54 -2408.69,-432.84 -369.33,-40.56 -665.53,-85.55 -1056.67,-117.53 -262.88,38.12 -271.46,157.68 -486.27,193.57 -290.5,83.99 -560.5,1.68 -756.9,-122.12 -77.17,-48.62 -191.43,-146.99 -246.8,-215.77 -72.39,-89.92 -140.46,-180.34 -195.78,-283.32 -53.41,-99.41 -110.74,-189.98 -158.22,-304.34 -126.33,-304.31 -431.25,-1115.95 -597.55,-1302.33 -63.43,-71.09 -169.41,-187.53 -268.48,-210.62l22.68 -10.36c11.74,-4.85 24.57,-9.88 35.51,-14.05l173.16 -74.65c389.41,-196.48 654.36,-483.43 791.03,-910.59 62.39,-195 70.85,-366 50.32,-591.71 -16.09,-176.94 -99.69,-371.87 -175.21,-502.12 -532.68,-918.67 -2247.99,-753.95 -2785.2,-213.76 -88.42,88.9 -226.92,218.59 -226.92,384.34z"/>
  <path class="fil1" d="M11154 7911.22c198.59,0 733.37,20.46 892.11,-16.53 84.97,-364.74 87.82,-512.38 314.8,-891.19 313.92,-523.88 729.95,-906.1 1308.89,-1136.16 528.51,-210.02 993.4,-247.32 1555.42,-144 156.78,28.81 331.12,90.16 465.09,146.17 238.22,99.59 568.62,296.54 746.28,476.23 357.37,361.47 554.43,611.62 724.9,1108.89 27.89,81.37 45.34,142.49 65.19,232.19 64.69,292.29 -122.07,224.4 932.03,224.4 83.13,0 63.08,-85.67 55.51,-136.4l-111.86 -534.16c-176.85,-625.28 -525.19,-1156.84 -972.05,-1605.15 -185.07,-185.68 -510.26,-430.24 -734,-554.61 -1306.45,-726.21 -2774.16,-559.86 -3930.22,342.68 -323.95,252.91 -598.42,566.94 -826.49,908.17 -64.96,97.2 -104.24,180.39 -164.74,281.31l-137.02 292.52c-41.02,100.82 -367.71,1005.64 -183.84,1005.64z"/>
  <path class="fil0" d="M3257.17 8737.24c0,405.01 185.47,719.71 442.05,945.67l598.74 475.1c50.97,38.14 97.94,73.6 151.09,113.26 111.76,83.35 192.2,156.51 290.99,254.18 515.67,509.87 412.5,1333.86 -166.38,1642.9 -610.83,326.12 -1266.93,-122.93 -1266.93,-639.13l0 -132.17c0,-523.54 627.79,-639.69 627.79,-313.89 0,60.13 -32.33,75.62 5.2,125.64 100.56,134 341.73,4.39 341.73,-224.76 0,-270.39 -256.78,-495.62 -528.66,-495.62 -361.11,0 -519.4,49.52 -780.84,309.52 -454.21,451.71 -350.07,1316.46 269.17,1672.47 298.77,171.77 724.66,259.74 1170.58,180.29 323.7,-57.67 501.76,-152.38 742.21,-315.11 50.44,-34.13 57.09,-47.14 99.94,-81.78 304.8,-246.38 530.97,-682.61 530.97,-1088.05 0,-541.41 -161.95,-868.49 -515.95,-1218.72 -32.91,-32.56 -34.9,-31.68 -71.8,-60.35l-217 -179.5c-105.39,-78.64 -201.2,-146.17 -304.46,-224.2 -354.25,-267.73 -708.05,-482.07 -708.05,-960.52 0,-487 696.79,-809.28 1113.79,-172.12 59.25,90.53 109.77,203.22 148.34,314.23 82.62,237.82 30,303.95 224.72,303.95 39.78,0 99.12,-59.34 99.12,-99.13l0 -1106.87c0,-91.15 -109.96,-82.61 -148.69,-82.61 -95.97,0 -78.55,165.21 -198.24,165.21 -195.12,0 -186.44,-165.21 -809.51,-165.21 -598.06,0 -1139.92,510.32 -1139.92,1057.32z"/>
  <path class="fil0" d="M18769.97 8489.43c0,173.66 198.25,43.06 198.25,313.9l0 1965.94c0,321.72 -214.77,196.28 -214.77,346.93 0,92.38 198.71,78.68 330.9,82.11 83.14,2.16 91.31,16.57 180.58,17.67 71.19,0.88 143.99,-0.66 215.43,-0.66 72.14,-309.65 -214.77,40.44 -214.77,-545.18 0,-418.71 -12.57,-879.34 11.27,-1292.33 2.7,-46.78 -7.18,-46.27 -11.27,-95.39 39.27,45.18 165.21,366.12 188.81,422.45l476.62 1092.83c36.34,87.11 50.94,148.65 158.36,144.39 99.83,-3.95 113.82,-68.75 143.9,-146.81l483.8 -1085.64c29.28,-72.16 60.75,-145.83 95.75,-218.14l104.81 -209.08 0.71 1636.25c-2.85,363.48 -215.47,180.6 -215.47,346.21 0,107.47 322.19,80 507.62,103.64 85.88,10.95 181.33,23.11 284.89,29.02 137.39,7.84 231.76,67.08 231.76,-83.09 0,-92.92 -198.24,-41.97 -198.24,-264.33l0 -2197.23c0,-156.63 96.32,-180.7 153.95,-209.51 51.98,-25.97 60.81,-30.8 60.81,-87.86 0,-102.71 -213.46,-66.3 -313.91,-66.07 -608.23,1.41 -393.32,-162.74 -688.29,468.11l-239.13 553.86c-36.52,89.12 -78.67,176.3 -120.43,276.06l-89.22 208.15c-10.82,24.78 -3.28,11.77 -15.64,33.92 -12.01,21.53 -9.12,16.56 -20.23,29.33 -23.55,-101.11 -72.62,-188.58 -110.94,-285.54 -40.07,-101.37 -74.85,-178.58 -115.59,-280.91l-349.16 -840.32c-130.51,-324.8 -70.3,-170.62 -566.64,-226.35 -76.03,-8.53 -344.52,-36.28 -344.52,63.67z"/>
  <path class="fil0" d="M24254.8 9298.94c0,302.91 194.28,644.91 419.98,819.06 52.18,40.26 59.45,50.48 104.24,94 274.4,266.52 797.42,560.25 797.42,1102.45 0,311.92 -173.57,561.7 -495.62,561.7 -583.01,0 -698.26,-892.11 -396.49,-892.11 133.28,0 24.99,132.16 198.25,132.16 192.54,0 141.85,-462.58 -231.29,-462.58 -585.36,0 -767.89,893.85 -153.77,1343.25 623.49,456.27 1640.62,106.67 1640.62,-765.02 0,-318.54 -35.18,-508.37 -194.81,-763.4 -161.36,-257.8 -477.34,-520.63 -723.31,-713.97 -133.85,-105.2 -325.26,-279.75 -381.69,-444.33 -204.46,-596.39 564.21,-806.7 806.41,-62.99 31.5,96.73 47.29,200.47 146.47,200.47 77.12,0 115.64,-38.53 115.64,-115.65l0 -726.9c0,-90.04 -75.72,-123.96 -135.03,-103.62 -93.05,31.9 -74.06,192.03 -261.14,86.78 -38.12,-21.45 -51.92,-30.69 -98.81,-49.88 -202.87,-83.04 -479.81,-58.97 -678.19,33.46l-177.98 119.39c-25.37,22.12 -35.94,26.01 -55.44,43.69 -134.32,121.8 -245.46,374.93 -245.46,564.04z"/>
  <path class="fil0" d="M22982.71 11330.97c-257.92,0 -365.44,-185.45 -435.73,-423.34 -131.86,-446.28 -221.24,-2153.87 419.21,-2153.87 221.38,0 360.34,248.48 415.34,427.22 158.56,515.34 182.24,2149.99 -398.82,2149.99zm-1189.48 -1288.6c0,489.8 125.23,856.56 365.77,1154.12 462.57,572.22 1312.74,502.64 1671.89,-74.66 87.98,-141.41 149.63,-283.26 196.2,-464.62 147.39,-574.03 81.02,-1270.85 -267.66,-1755.01 -406.92,-565.02 -1221.05,-551.06 -1659.24,75.92 -179.21,256.43 -306.96,635.9 -306.96,1064.25z"/>
  <path class="fil0" d="M11170.52 9827.6c0,-228.07 35.44,-571.26 85.7,-756.85 57.22,-211.34 155,-465.67 409.92,-465.67 399.15,0 462.57,726.16 462.57,1156.43 0,469.33 -61.34,1206 -495.62,1206 -345.93,0 -408.95,-493.79 -441.76,-747.71l-20.81 -392.2zm446.05 1404.25c347.32,0 622.57,-183.57 816.89,-438.67 432.6,-567.99 402.76,-1860.45 -225.07,-2284.31 -450.93,-304.42 -1068.15,-156.13 -1385.05,327.25 -147.08,224.34 -255.2,538.75 -264.11,826.25 -5.91,190.41 -23.94,-7.63 -0.9,281.78 3.84,48.21 -1.84,96.78 3.14,145.56 8.05,78.79 30.52,183.43 52.9,260.99 143.01,495.38 474.74,881.15 1002.2,881.15z"/>
  <path class="fil0" d="M17299.64 8985.05l313.89 1090.35 -627.78 0 233.33 -807.46c19.54,-63.21 75.46,-221.55 80.56,-282.89zm-214.77 -313.89c0,93.2 -48.58,237.88 -76.21,320.27 -37.07,110.54 -63.37,202.23 -95.96,317.06l-283.25 922.75c-31.99,113.16 -159.04,529.19 -205.3,604.21 -79.03,128.13 -214.86,59.54 -214.86,198.15 0,102.23 208.22,63.3 380.63,65.42 171.16,2.11 379.31,92.07 379.31,-81.94 0,-74.26 -181.72,-70.32 -181.72,-214.77 0,-64.19 35.63,-181.16 52.94,-244.42 15.99,-58.39 57.25,-169.21 62.7,-234.68l776.46 0c36.95,77 115.65,400.36 115.65,528.66 0,173.17 -165.21,78.18 -165.21,214.77 0,95.67 136.62,63.02 231.81,65.57l577.61 33.68c186,-1.53 231.38,54.54 231.38,-99.25 0,-62.48 -60.7,-51.88 -111.08,-87.17 -143.36,-100.42 -315.68,-839.05 -382.49,-1054.79 -54.19,-174.93 -365.5,-1170.59 -365.5,-1270.04 0,-118.47 132.16,-57.63 132.16,-181.73 0,-111.27 -240.53,-56.82 -344.51,-68.49 -165.17,-18.55 -411.25,-14.11 -597.16,-14.11 -72.26,0 -82.21,97.3 -28.84,143.59 49.35,42.8 111.44,21.93 111.44,137.26z"/>
  <path class="fil0" d="M13599.29 11622.3c0,-233.6 -320.04,-126.95 -539.92,-121.56 -243.3,5.95 -473.08,40.4 -698.05,51.51 -237.07,11.72 -461.53,43.49 -680.98,68.59 -634.13,72.5 -1343.66,179.45 -1949.24,299.44 -423.62,83.91 -825.95,160.46 -1235.78,263.35 -1002.6,251.67 -1912.03,521.65 -2837.52,910.29 -184.28,77.39 -336.68,154.29 -517.91,231.65 -86.91,37.1 -159.28,78.61 -244.83,121.25l-605.25 336.04c-37.82,22.62 -88,47.95 -122.4,70.57 -76.31,50.15 -99.64,157.51 105.73,52.34l515.59 -216.67c479.2,-191.06 867.83,-340.09 1373.81,-508.81 1520.03,-506.84 3219.95,-926.69 4842.32,-1154.16 540.25,-75.75 1513.8,-199.27 2036.96,-211.74 66.2,-1.58 446.34,-25.07 496.17,-61.64 39.32,-28.85 61.3,-71.94 61.3,-130.45z"/>
  <path class="fil0" d="M7304.71 8687.68c-27.39,117.58 -73.64,623.54 -49.56,726.9 106.56,51.14 153.76,27.6 188.65,-75.67 29.03,-85.95 60.76,-153.77 102.93,-227.48 82.35,-143.94 233.34,-208.69 435.32,-225.51l0.05 2081.65c0.48,127.73 0.35,212.01 -42.74,304.18 -76.6,163.86 -188.6,51.71 -188.6,207.91 0,113.62 186.41,54.26 316.75,35.89 100.66,-14.2 175.26,-25.78 276.6,-37.29 91.72,-10.42 178.9,-22.87 279.3,-34.58 125.32,-14.64 173.24,7.27 201.19,-112.71 -114.59,-131.84 -247.81,11.19 -247.81,-396.49l0 -2032.03c0,-101.12 336.71,-122.32 473.96,153.82 29.12,58.61 51.97,176.07 84.32,213.87 51.17,59.76 168.62,42.86 168.62,-37.28 0,-88.34 -35.8,-591.49 -59.7,-650.79 -44.98,-111.61 -400.95,-12.93 -617.55,-9.93 -93.75,1.28 -1197.25,86.53 -1321.73,115.54z"/>
  <path class="fil0" d="M6032.62 8803.33c-25.36,105.94 -23.35,31.93 0,132.16 79.56,38.17 214.77,7.31 214.77,330.41l0 1982.46c0,90.64 -13.51,241.54 -43.81,303.12 -72.64,147.7 -187.47,59.35 -187.47,209.02 0,131.97 365.11,21.64 580.54,-14.19 147,-24.45 476.77,-45.51 476.77,-134.49 0,-193.44 -231.29,-0.34 -231.29,-379.97l0 -2065.08c0,-182.53 53.26,-239.69 158.88,-287.18 137.65,-61.89 48.73,-136.74 22.85,-175.39l-740.63 68.88c-67.74,7.21 -184.44,14.83 -250.61,30.25z"/>
  <path class="fil0" d="M9518.46 8505.96c-12.33,18.41 -49.56,55.56 -49.56,66.07 0,163.95 214.77,42.1 214.77,313.89l0 2048.56c0,284.76 -214.77,186.76 -214.77,346.93 0,48.49 30.47,65.24 79.24,64.66l715 -79.93c131.55,-10.06 246.56,9.26 246.56,-100.38 0,-114.58 -214.77,-30.45 -214.77,-297.37l0 -1998.99c0,-330.15 214.77,-184.36 214.77,-363.44 0,-94.29 -154.51,-62.01 -329.44,-48.59 -212.32,16.28 -439.08,48.59 -661.8,48.59z"/>
  <path class="fil2" d="M14540.71 13941.21l36.94 -987.34c8.84,-37.1 8.58,-29.79 29.14,-53.45 0,268.15 33.04,508.33 33.04,792.99 0,152.15 13.07,269.5 -16.52,396.49l-66.08 0c-1.66,-74.7 -16.52,-65.66 -16.52,-148.69zm-379.97 -743.42c0,376.78 57.28,604.82 310.03,846.4 88.87,84.94 63.02,69.26 96.26,316.76 12.51,93.18 -15.9,134.22 39.76,175 19.05,-39.68 30.8,-280.77 32.23,-347.74 3.1,-146.03 49.93,-91.27 159.42,-237.08 250.25,-333.28 274.67,-851.65 94.99,-1221.7l-217.91 -376.84c-3.7,-5.13 -39.98,-55.79 -41.55,-57.56 -38.97,-43.88 -12.09,-26.06 -60.22,-38.91 -13.83,51.79 -75.96,100.76 -138.93,191.48 -125.35,180.59 -274.08,506.72 -274.08,750.19z"/>
  <path class="fil2" d="M13334.71 13627.32zm0 0zm0 0c78.27,20.9 472.01,304.81 574.22,400.49 91.64,85.79 166.34,150.08 255.94,239.68 81.38,81.38 164.83,176.54 248.6,250.82 138.01,122.43 -23.71,-168.61 -54.25,-230.4 -223.45,-452.26 -414.47,-813.88 -968.64,-997.3 -246.03,-81.45 -186.54,-48.47 -412.43,-83.79 -87.72,-13.71 -166.26,-40.65 -148.61,62.41 19.46,113.67 156.99,449.79 208.5,539.12 188.38,326.68 444.53,565.46 815.48,671.37 86.21,24.62 344.41,77.36 422.86,39.71 -19.01,-71.2 -372.63,-369.64 -465.03,-443.59l-476.64 -448.52z"/>
  <path class="fil2" d="M15829.31 13660.37zm0 0zm0 0c-72.85,108.8 -234.22,227.06 -334.23,326.58l-364.09 313.25c-40.44,38.93 -66.34,69.79 -107.52,107.25 -53.09,48.31 -85.08,62.19 -102.79,128.5 477.05,0 780.19,-173.86 1020.47,-416.81 178.89,-180.88 381.47,-617.5 412.32,-847.44 11.52,-85.82 -23.64,-67.02 -78.78,-61.87 -662.73,61.81 -1007.64,320.86 -1324.17,843.82 -50.3,83.09 -74.3,154.59 -117.96,245.49l-110.12 253.34c64.31,-17.18 204.88,-180.1 260.2,-235.42l532.83 -458.4c57.24,-40.44 254.88,-182.55 313.84,-198.29z"/>
  <path class="fil1" d="M18522.16 7580.8c0,111.14 120.38,101.29 203.19,88.02 103.32,-16.54 171.53,-27.15 273.05,-41.31 532.22,-74.31 1129.68,-183.15 1661.99,-270.92l2024.24 -371.24c62.7,-11.57 77.39,-10.64 83.32,-81.89 -127.97,-29.81 -1383.37,165.47 -1619.91,197.36 -793.7,106.98 -1623.18,257.91 -2424.91,367.07 -84.64,11.51 -200.97,10.42 -200.97,112.91z"/>
  <path class="fil1" d="M6511.72 6953.02c52.17,54.99 114.6,52.7 224.3,73.07 99.44,18.46 167.94,31.62 264.33,49.56l1569.48 280.83c180.02,34.04 344.6,54.73 526.17,85.09l1611.94 238.35c46.88,0 82.6,-57.02 82.6,-99.12 0,-100.97 -94.17,-93.89 -188.91,-108.45 -98.7,-15.17 -176.58,-27.83 -272.74,-41.15l-1093.57 -161.99c-532.35,-89.65 -1112.87,-156.4 -1650.7,-232.65l-834.37 -107.31c-155.21,-21.71 -202.58,-42.63 -238.53,23.77z"/>
  <path class="fil1" d="M7172.54 5400.09l462.58 181.73c400.43,160.29 3164.78,1255.56 3370.19,1255.56 61.19,0 66.09,-64.89 66.09,-115.64 0,-80.85 -376.55,-187.09 -447.99,-212.84 -659.64,-237.77 -1276.14,-474.01 -1945.58,-697.72l-986.73 -334.9c-116.24,-38.64 -411.01,-142.27 -518.56,-142.27l0 66.08z"/>
  <path class="fil1" d="M18241.31 6721.74c0,259.47 290.59,44.72 699.95,-93.05 333.79,-112.33 879.02,-341.25 1230.49,-471.12 571.89,-211.32 1236.79,-486.85 1815.92,-728.25 56.42,-23.51 80.39,-23 86.41,-95.31 -164.46,0 -1037.91,332.24 -1224.44,394.57 -643.7,215.1 -1292.6,472.33 -1920.82,689.43l-479.65 181.17c-69.81,26.73 -207.86,46.57 -207.86,122.56z"/>
  <path class="fil1" d="M17762.22 5928.75c0,36.87 43.39,78.19 76.47,88.61 69.79,21.98 240.42,-118.16 329.92,-177.84l1677.72 -1147.3c122.44,-90.93 1185.26,-818.08 1236.52,-894.62 -34.72,-51.85 -29.29,-61.71 -91.74,-28.57l-113.66 70.98c-79.43,47.8 -138.26,81.23 -217.16,129.76 -148.43,91.31 -277.98,175.65 -426.98,266.89l-634.08 406.72c-586.05,366.49 -1184.65,795.16 -1765.06,1175.59 -45.84,30.05 -71.95,39.61 -71.95,109.78z"/>
  <path class="fil1" d="M11434.85 6027.87c94.15,0 115.64,-51.66 115.64,-132.17 0,-55.53 -89.31,-86.89 -181.73,-148.68 -608.58,-406.83 -1265.75,-807.07 -1866.65,-1206.17l-836.01 -518.67c-106.26,-69.87 -370.67,-257.63 -485.8,-257.63 1.63,73.45 15.19,72.36 60.46,104.75l2348.25 1616.68c76.3,50.9 837.45,541.89 845.84,541.89z"/>
  <path class="fil1" d="M14557.23 3781.07c0,161.52 -18.22,396.07 16.52,545.18 33.98,16.31 66.18,32.89 107.26,24.28 41.69,-8.74 74.47,-30.78 74.47,-73.84l0 -2147.67c0,-181.89 -17.19,-311.6 -16.57,-479.04 0.61,-164.6 2.73,-332.02 0.71,-496.33 -1.19,-95.94 -18.5,-124.25 -17.51,-230.3 1.12,-120.5 25.13,-165.3 -49.23,-215.1 -72.03,48.23 -45.82,39.82 -50.34,147.91 -3.13,74.76 -16.19,91.94 -16.31,181.94 -0.17,117.12 10.62,283.56 -1.85,394.65 -25.11,223.67 -3.89,393.07 -14.03,580.71 -4.04,74.81 -17.04,90.3 -17.17,181.07 -0.75,544.65 -15.95,1038.24 -15.95,1586.54z"/>
  <path class="fil1" d="M12145.23 5284.45c88.67,0 133.56,-95.95 86.28,-167.3 -18.59,-28.07 -56.98,-57.31 -82.34,-84.46 -35.27,-37.77 -38.75,-53.27 -73.95,-91.25l-760.02 -842.48c-33.4,-37.8 -36.86,-52.36 -74.14,-91.06l-388.8 -420.7c-58.2,-57.9 -87.45,-105.07 -148.41,-165.48l-314.17 -330.14c-39.34,-39.14 -43.45,-48.92 -75.77,-89.43l-411.6 -417.34c-87.82,-70.4 -118.81,6.21 -24.41,109.8l292.06 352.36c248.4,318.16 656.92,752.27 884.88,1048.03l912.48 1036.94c83.52,83.94 117.34,152.51 177.91,152.51z"/>
  <path class="fil1" d="M17051.83 5152.28c0,63.18 85.76,181.63 184.88,69.24l214.07 -248.51c181.94,-227.29 468.66,-523.84 648.84,-755.41l220.5 -258.6c26.25,-32.24 39.32,-52.96 65.9,-82.78 221.47,-248.4 628.38,-769.45 792.83,-941.83 57.87,-60.66 85.7,-112.14 140.54,-173.35 29.13,-32.5 137.6,-141.02 117.93,-180.74 -35.74,-72.12 -229.98,144.11 -240.5,157.3 -136.64,171.19 -252.06,237.51 -384.26,408.72 -45.09,58.4 -101.68,107.77 -154.14,159.75l-817.6 900.53c-81.91,92.94 -788.99,898.66 -788.99,945.68z"/>
  <path class="fil1" d="M12905.18 4772.31l99.12 -16.52 16.52 -99.13c0,-39.11 -765.1,-1425.88 -908.41,-1701.83l-641.4 -1126.3c-67.49,-112.1 -57.93,-143.47 -151.81,-145.57 0,123.38 102.21,249.4 167.52,410.71 145.95,360.46 773.81,1520.2 983.41,1940.73 36.4,73.03 62.73,113.9 99.21,181.64 40.55,75.29 251.2,556.27 335.84,556.27z"/>
  <path class="fil1" d="M16424.05 1137.78c-83.56,56.51 -699.68,2202.4 -776.37,2494.7 -36.68,139.8 -75.82,286.31 -117.71,427.48 -20.54,69.18 -37.09,143.83 -58.41,223.83 -51.48,193.27 134.26,252.75 195.15,45.07l173.26 -652.77c35.04,-120.61 645.13,-2417.69 647.41,-2494.87 3.39,-114.95 -63.32,-43.44 -63.33,-43.44z"/>
  <path class="fil2" d="M16605.78 13561.24c0,206.01 152.59,165.21 363.45,165.21 427.1,0 807.67,-35.2 1222.74,-32.82 123.17,0.71 173.79,-17.7 296.93,-16.96l601.93 -25.85c58.11,-8.8 98.46,-7.18 159.04,-6.17 86.42,1.44 95.87,14.59 131.36,-33.84 -39.28,-53.61 -214.74,-56.12 -312.48,-67.49l-1835.21 -114.21c-208.16,0.46 -627.76,-97.34 -627.76,132.13z"/>
  <path class="fil1" d="M13747.72 4474.94c178.72,0 4.84,-395.03 -26.06,-502.58 -43.91,-152.81 -85.44,-272.36 -126.12,-419.08l-651.37 -2074.52c-49.74,-169.06 -83.5,-348.83 -187.68,-357.49 -33.39,143.31 393.93,1584.06 429.41,1718.26l369.78 1265.75c25.08,77.01 42.17,139.26 63.28,217.57 20.39,75.65 22.65,152.09 128.76,152.09z"/>
  <path class="fil2" d="M9898.43 13594.28l0 49.56 1453.27 66.63c103.37,3.09 211.21,-2.49 315.09,-1.2 102.6,1.27 172.77,17.48 296.69,17.21l462.6 -0.03c182.45,0 232.82,-312.98 -65.37,-315.05l-546.43 17.14c-83.29,2.49 -91.43,16.72 -180.54,17.71 -273.88,3.04 -1151.67,70.23 -1399.86,103.5l-335.45 44.53z"/>
  <path class="fil1" d="M16275.37 4640.15c0,90.68 75.44,127.5 142.37,94.8 58.05,-28.35 70.39,-90.74 116.45,-182.92l1277.34 -2588.46c58.62,-119.02 162.26,-250.54 91.09,-285.03 -58.33,-28.27 -268.28,364.99 -299.94,423.1 -37.17,68.25 -68.66,128.03 -105.53,191.84 -35.51,61.42 -68.32,122.83 -107.87,189.52 -301.29,507.95 -636.42,1210.2 -926.96,1749.36l-186.95 407.79z"/>
  <path class="fil1" d="M8543.75 6639.13c37.61,51.32 49.11,40.82 121.06,60.67l2000.45 543.75c104.83,30.23 240.93,68.67 240.93,-75.76 0,-91.5 -147.69,-99.94 -230.09,-116.84 -96.82,-19.87 -195.06,-44.51 -295.11,-68.35 -188.45,-44.89 -405.96,-88.79 -599.57,-127.32 -127.95,-25.48 -1103,-232.67 -1204.63,-232.67 -8.68,0 -31.14,13.26 -33.04,16.52z"/>
  <path class="fil1" d="M18406.52 7167.79c0,200.58 241.31,70.61 541.89,-3.29l1754.47 -492.33 0 -49.56c-105.92,0 -208.11,30.06 -298.75,48.18 -595.86,119.19 -1178.69,265.34 -1751.35,379.81 -79.39,15.87 -246.26,34.89 -246.26,117.19z"/>
  <path class="fil1" d="M8428.11 7894.69c220.57,0 916.48,95.93 1156.34,99.22 234.56,3.23 617.49,51.48 875.62,66.09 224.9,12.72 247.87,-1.12 247.87,-115.75 0,-76.57 -107.8,-73.21 -215.61,-81.76 -88.97,-7.04 -204.68,-0.84 -296.53,-0.84 -99.12,0 -198.3,-0.32 -297.41,0.05 -120.01,0.44 -179.7,-15.99 -280.14,-17.23 -395.1,-4.88 -794.52,0.66 -1190.14,0.66l0 49.56z"/>
  <path class="fil1" d="M17431.81 5515.73c0,84.42 79.74,115.65 82.6,115.65 102.41,0 372.56,-313.77 514.6,-427.07l1104.41 -1043.26c-65.64,-43.96 -53.85,-21.25 -214.77,99.12 -265.12,198.33 -499.73,408.19 -750.61,604.07 -193.12,150.77 -480.25,420.36 -644.15,545.33 -35.09,26.75 -92.08,55.95 -92.08,106.16z"/>
  <path class="fil1" d="M10113.2 4144.53c20.93,78.37 308.28,305.8 392.57,383.89 287.41,266.28 674.45,588.06 933.22,834.49 42.39,40.38 292.55,268.47 326.27,268.47 116.75,0 156.94,-104.07 76.56,-175.69 -8.66,-7.71 -42.47,-31.96 -56.19,-42.93l-1441.14 -1136.07c-111.93,-83.63 -163.34,-156.59 -231.29,-132.16z"/>
  <path class="fil1" d="M18026.55 6325.24c0,73.68 63.08,107.52 98.85,108.97 43.19,1.76 456.92,-225.69 521.96,-264.63 49.74,-29.78 74.3,-43.54 128.09,-70.14l1151.88 -632.36c61.94,-34.89 95.23,-27.03 114.73,-100.03 -96.49,2.14 -528.95,211.12 -655.4,269.75l-1134.33 534.25c-64.57,32.34 -225.78,84.32 -225.78,154.19z"/>
  <path class="fil1" d="M11286.16 6341.76c0,-56.7 -36.01,-82.17 -79.56,-102.17l-917.31 -420.85c-182.95,-81.28 -344.2,-154 -527.6,-232.34 -115.36,-49.3 -454.97,-217.08 -557.12,-219.35 17.63,66.02 41.66,64.01 104.36,93.88l1866.59 972.57c48.42,4.38 110.64,-31.05 110.64,-91.74z"/>
  <path class="fil1" d="M18588.25 7944.25c0,89.65 10.32,57.04 49.56,115.65 116.66,0 189.57,-12.09 280.88,-16.5 109.16,-5.27 183.09,-16.27 280.82,-16.54l1523.21 -128.84c90.11,-8.79 88.41,18.81 128.84,-36.37 -34.78,-47.47 -28.36,-34.47 -114.33,-34.34l-431.71 16.95c-178.63,14.78 -424.46,0.87 -610.4,0.87l-873.18 18.93c-82.15,9.06 -233.69,-4.97 -233.69,80.19z"/>
  <path class="fil1" d="M16671.86 4887.95c0,50.08 96.7,151.15 185.99,20.78l951.04 -1477.76c92.17,-132.33 34.29,-168.05 -44.73,-61.57l-530.49 692.63c-64.11,91.29 -561.81,724.32 -561.81,825.92z"/>
  <path class="fil1" d="M12508.68 5003.59c257.36,0 0.21,-280.45 -21.33,-309.07 -53.03,-70.46 -94.4,-131.56 -146.25,-200.68l-677.24 -892.22c-57.99,-72.51 -171.25,-275.56 -262.05,-283.12 2.19,98.52 200.27,349.66 254.78,439.08l273.87 419.99c57.92,86.87 530.66,826.02 578.22,826.02z"/>
  <path class="fil1" d="M15036.33 4276.69c0,44.62 7.89,45.55 16.52,82.6 73.98,17.24 166.12,60.77 180.81,-149.6l136.05 -1268.19c18.48,-164.5 46.59,-329.82 46.59,-515.11l-49.56 0c-80.06,343.65 -197.44,1017.41 -257.25,1378.3 -24.09,145.33 -73.16,327.11 -73.16,472z"/>
  <path class="fil1" d="M14276.38 4326.25c0,-90.59 -18.71,-167.28 -34.48,-246.37l-320.51 -1579.35c-16.86,-66.77 -1.7,-68.08 -74.54,-74.14 0,95.8 21.93,179.07 31.68,265.69l219.7 1630.7c43.66,121.37 178.15,45.65 178.15,3.47z"/>
  <path class="fil0" d="M6429.12 8555.52c119.24,0 133.89,13.14 202.85,-44.96 32.48,-27.37 47.77,-40.01 82.74,-65.96 58.89,-43.68 507.39,-372.34 507.39,-434.26 0,-100.31 -174.38,-66.09 -363.45,-66.09 -74.92,0 -91.7,38.88 -160.11,120.75l-267.41 327.37c-20.21,24.52 -55.25,52.5 -62.58,88.01 -9.48,45.94 16.86,75.14 60.57,75.14z"/>
  <path class="fil1" d="M13417.31 4524.5c0,-93.5 -197.23,-497.18 -248.03,-611.04l-181.26 -396.96c-33.77,-68.34 -58.17,-129.83 -93.64,-203.72l-187.45 -407.29 -49.56 0c0,91.02 117.6,363.86 154.71,473.06l429.31 1156.78c55.95,124.32 175.92,56.1 175.92,-10.83z"/>
  <path class="fil1" d="M15878.88 4491.46c0,73.83 120.28,120.2 174.39,25.94l500.57 -1416.05c18.12,-44.72 32,-71.57 47.99,-120.13 22.46,-68.19 22.3,-57.84 -29.09,-92.26 -30.99,58.56 -64.47,121.63 -92.15,188.7l-441.15 996.14c-33.05,76.59 -160.56,359.49 -160.56,417.66z"/>
  <path class="fil0" d="M9155.01 15048.09c-140.66,0 0,-184.26 0,-413.01 173.43,3.86 165.21,87.8 165.21,198.24 0,108.69 -57.92,214.77 -165.21,214.77zm-280.85 16.52c123.9,59.45 594.74,155.61 594.74,-214.76 0,-114.86 -6.39,-201.34 -154.59,-258.43 -49.52,-19.07 -246.6,-55.47 -307.99,-55.47 -73.5,0 5.12,30.01 10.36,96.31l-60.16 316.47c-33.34,111.82 -56.18,17.84 -82.36,115.88z"/>
  <path class="fil0" d="M13334.71 15328.94l0 -198.25c50.33,1.12 60.23,7.46 99.12,16.53 40.02,167.15 14.59,127.16 -99.12,181.72zm-214.77 280.85l234.21 0.71c38.37,-38.35 -5.2,-24.17 -25.73,-75.06 -16.84,-41.75 -10.23,-90.47 -10.23,-140.41l49.56 0c20.34,87.31 61.35,159.89 99.12,231.28 87.64,0 97.56,0.76 165.21,16.52 25.16,-118.77 2.36,-10.32 -66.66,-131.47 -31.36,-55.05 -45.36,-94.62 -82.02,-149.38 176.02,-41.01 140.33,-266.14 -36.2,-294.22 -47.45,-7.55 -96.52,-0.49 -144.55,-4.13 -63.77,-4.83 -67.89,-15.54 -149.67,-15.54 3.25,145.62 32.66,-3.97 40.8,110.46 4.85,68.09 -9.36,319.07 -43.14,382.82 -20.95,39.53 -24.68,-3.82 -30.7,68.42z"/>
  <path class="fil0" d="M8180.3 14915.93c65.27,5.43 108.27,31.82 163.52,38.1 26.02,2.96 43.62,18.76 46.01,-21.83 3.79,-64.69 4.57,0.9 -44.33,-65.84 8.42,-101.14 49.57,-174.25 49.57,-280.84l14.32 18.71c17.29,26.29 5.74,6.77 19.01,30.55 11.82,21.18 21.74,43.94 32.79,66.33 20.06,40.65 39.57,75.69 60.61,121.12 45.93,99.13 45.21,183.98 154.11,209.34 38.01,-71.82 80.39,-290.93 102.05,-393.56 14.91,-70.69 4.03,-79.24 79.68,-85.53l0 -66.09c-143.83,-3.19 -204.7,-69.01 -187.34,9.38 15.2,68.6 65.57,-21.22 19.78,170.01 -14.94,62.42 -2.05,68.37 -47.21,101.46 -5.2,-22.34 -127.11,-332.12 -183.47,-361.82 -34.72,-18.29 -129.92,-39.05 -149.62,-19.06 -48.6,49.3 33.64,15.42 32.02,112.37l-71.98 308.47c-38.23,100.98 -64.44,14.78 -89.52,108.73z"/>
  <path class="fil0" d="M20818.52 14453.35l115.65 0c26.38,113.24 44.01,178.91 -82.61,181.73 0,-52.15 -18.04,-148.16 -33.04,-181.73zm-198.25 33.04l66.09 0c15.03,180.65 109.71,339.06 72.14,434.25 -18.26,46.28 -27.07,60.79 82.47,36.16 47.69,-10.71 84.04,-20.83 126.24,-24.35 -4.59,-55.13 -4.86,-29.67 -16.73,-49.35 -14.08,-23.35 -62.79,-43.21 -65.88,-181.94 69.52,18.56 54.4,38.36 138.45,142.63 65.51,81.26 113.56,44.69 208.49,22.57l0 -49.56c-123.26,-28.7 -108.58,-105.15 -198.25,-165.2 30.8,-45.99 66.08,-57.09 66.08,-132.17 0,-204.23 -236.46,-138.75 -348.49,-117.19 -91.02,17.51 -123.44,-1.89 -130.61,84.15z"/>
  <path class="fil0" d="M12773.01 15279.38l-49.56 0c0,-91.61 14.92,-109.85 16.52,-181.72 67.88,1.5 100.85,8 111.02,71.43 8.18,51.03 -27.37,110.29 -77.98,110.29zm-264.33 280.85c77.36,1.73 142.9,16.52 247.81,16.52 -9.18,-110.36 -86.37,-2.39 -33.04,-231.29l33.04 0c13.02,55.87 73.51,199.4 99.12,247.81l165.21 0c-6.19,-74.42 3.74,-24.52 -28.63,-70.49 -72.32,-102.67 -45.54,-84.23 -103.53,-193.84 138.34,-73.2 120.12,-200.5 46.56,-261.33 -65.83,-54.45 -276.64,-52.56 -376.97,-52.56 11,132.22 53.19,-37.72 18.99,283.32 -4.96,46.53 4.57,118.85 -6.75,158.46 -18.48,64.73 -40.75,24.56 -61.81,103.4z"/>
  <path class="fil0" d="M15432.82 15328.94c-38.9,9.06 -48.79,15.4 -99.12,16.52l0 -198.24 98.57 19.02c11.38,42.82 32.04,92.23 0.55,162.7zm-297.37 -231.28l0 49.56 65.44 18.54 -4.07 389.77c-18.01,64.61 -24.25,10.14 -44.85,87.3l247.81 0c-5.08,-61.08 -8.29,-32.74 -16.98,-49.09l-13.28 -19.77c-28.43,-49.63 -35.82,-89.97 -35.82,-162.43l49.56 0c13.28,57 89.91,231.29 148.68,231.29 151.38,0 89.46,4.66 132.17,-16.52 -17.63,-66 -138.94,-147.27 -148.69,-264.33 39.42,-10.52 34.15,0.14 59.27,-39.85 65.28,-103.9 -13.63,-241 -191.43,-241 -109.88,0 -143.01,16.53 -247.81,16.53z"/>
  <path class="fil0" d="M16506.66 15097.66c191.3,0 181.72,132.09 181.72,280.84 0,100.26 -62.02,132.17 -165.2,132.17 0,-154.39 -16.52,-251.2 -16.52,-413.01zm-198.25 -49.57c5.93,71.23 9.67,19.53 36.96,78.69 1.61,3.49 3.88,7.53 5.25,11.28 3.6,9.8 19.39,128.22 19.5,129.18 5.71,47.05 2.37,81.49 4.5,127.65 3.44,74.29 14.78,59.99 16.39,132.3 -59.56,15.9 -44.19,1.5 -49.56,66.08 105.08,0 263.88,-8.83 341.15,-38.82 240.6,-93.39 202.81,-522.88 -93.34,-522.88 -119.64,0 -165.46,16.52 -280.85,16.52z"/>
  <path class="fil0" d="M7833.37 14750.72c-114.85,0 -153.98,-56.11 -112.27,-227.45 74.3,-305.16 260.95,-209.8 260.95,-69.92 0,81.57 -66.48,297.37 -148.68,297.37zm-33.04 82.6c441.08,0 372.08,-578.21 99.12,-578.21 -104.2,0 -184.19,-10.74 -265.21,98.24 -39.75,53.48 -63.31,96.78 -69.99,193.09 -12.16,175.5 117.01,286.88 236.08,286.88z"/>
  <path class="fil0" d="M15944.96 15130.69c138.14,0 132.16,150.81 132.16,264.34 0,101.87 -31.98,145.71 -115.64,165.2 -174.07,-116.57 -116.64,-429.54 -16.52,-429.54zm-16.52 495.62c196.61,0 297.37,-88.99 297.37,-297.37 0,-411.14 -613.48,-343.76 -508.82,95.37 22.81,95.73 93,202 211.45,202z"/>
  <path class="fil0" d="M21380.22 14436.83c0,-225.4 264.33,-167.42 264.33,181.73 0,176.56 -264.33,120.12 -264.33,-181.73zm-132.17 33.04c0,463.53 528.66,392.42 528.66,82.61 0,-466.94 -528.66,-389.01 -528.66,-82.61z"/>
  <path class="fil0" d="M9551.5 15180.26c64.33,30.87 355.23,76.42 429.54,82.6 24.99,-52.07 48.5,-124.79 16.52,-181.73l-55.38 43.75c-51.25,46.99 3.15,38.85 -175.91,38.85 0,-83.75 16.52,-90 16.52,-181.72 171.43,0 31.32,34.74 148.69,66.08 24.25,-50.55 33.04,-105.69 33.04,-181.73 -121.68,10.13 -21.68,93.99 -148.69,33.05 -17.01,-17.14 14.12,-119.81 16.52,-148.69 29.54,0.67 84.36,7.98 100.71,14.93 44.92,19.13 42.71,20.88 47.98,84.2l66.08 0c12.61,-151.54 75.84,-128.52 -162.87,-167.55 -73.57,-12.01 -144.89,-30.7 -233.62,-30.7 12.29,147.73 59.84,-64.29 2.33,283.17 -46.97,283.69 -24.39,130.41 -101.46,245.49z"/>
  <path class="fil0" d="M12013.07 15444.59c-57.12,15.24 -50.84,8.96 -66.09,66.08 475.79,10.6 403.23,139.11 462.58,-115.64 -152.42,-32.28 43.76,66.07 -264.33,66.07l16.52 -181.72c134.02,2.98 65.02,33.4 132.17,82.6 49.72,-74.25 33.04,-81.47 33.04,-198.25 -102.31,27.32 -0.66,49.57 -148.69,49.57 0,-124.9 10.47,-92.43 16.52,-165.21 233.4,0 67.81,86.89 214.77,99.13 0,-83.63 11.22,-84.97 16.52,-148.69 -59.39,-4.94 -181.58,-21.36 -235.91,-28.46 -38.57,-5.04 -87.64,-7.13 -127.36,-8.96 -137.44,-6.34 -22.37,37.43 -17.37,118.68l-32.37 364.8z"/>
  <path class="fil0" d="M10740.98 14948.97c1.02,45.74 18.46,151.34 33.05,181.72 -64.19,-5.34 -43.05,-14.9 -115.65,-16.52l82.6 -165.2zm-313.89 379.97c71.88,1.6 90.12,16.52 181.73,16.52 -9.01,-108.27 -65.71,-41.03 0,-165.2 307.72,25.6 149.99,114.98 132.16,181.72 36.76,17.64 188.7,33.05 247.81,33.05 -6.82,-81.95 -28.88,-44.43 -47.96,-133.77l-65.95 -330.53c-23.33,-126.28 -7.96,-130.44 -117.38,-130.44 -75.02,0 -173.98,336.09 -289.53,453.89 -41.45,42.26 -34.58,-0.92 -40.88,74.76z"/>
  <path class="fil0" d="M19182.99 14717.68c15.9,59.56 1.5,44.2 66.08,49.56 13.78,165.61 142.01,429.54 -66.08,429.54 -69.49,0 -89.54,-83.66 -99.75,-148.06 -63.55,-400.8 -12.67,-154.77 0.62,-314.52 -93.85,0 -160.22,31.09 -247.81,33.04l0 49.56c91.45,21.31 68.12,30.71 105.85,257.61 30.12,181.24 90.73,204.97 224.56,204.97 369.75,0 138.82,-407.89 183.77,-517.4 16.59,-40.4 0.94,16.97 16.98,-27.54 6.35,-17.6 48.26,-25.99 -19.73,-44.93 -26.04,-7.25 -143.07,17.89 -164.49,28.17z"/>
  <path class="fil0" d="M17233.56 14982.01c23.8,89.15 69.8,7.92 81.72,182.61 3.7,54.18 4.12,73.52 11.43,122.64 10.24,68.75 -0.48,208.27 -129.42,162.22 -78.42,-28.01 -84.88,-200.98 -94.75,-305.86 -14.56,-154.53 29.07,-34.93 31.9,-161.61 -94.82,0 -125.42,16.52 -231.29,16.52l0 66.08 49.56 0c4.78,214.49 13.8,479.1 231.29,479.1 367.82,0 163.54,-376.43 209.19,-516.95 13.26,-40.83 20.95,-26.31 22.1,-77.79 -37.78,3.14 -155.36,20.39 -181.73,33.04z"/>
  <path class="fil0" d="M13979.01 15229.82c14.19,60.89 34.47,116.93 49.56,181.72l-115.64 0c4.57,-54.98 7.6,-43.47 25.21,-90.43l40.87 -91.29zm-280.85 396.49c49.45,27.78 111.87,16.52 198.25,16.52 -3.05,-136.69 -13.71,-15.05 -36.67,-90.16 -29.91,-97.88 108.36,-75.04 201.87,-75.04l16.53 66.08c-13.3,49.78 0.2,36.27 -49.57,49.56l0 49.56 197.88 19.73c52.37,2.82 14.8,-2.31 49.93,-19.73 -7.76,-70.98 -46.23,-29.05 -112.15,-267.82 -27.13,-98.29 -61.42,-216.02 -102.62,-293.88l-115.64 0 -106 290.5c-17.86,44.68 -40.65,101.4 -58.66,139.59 -45.62,96.77 -61.87,35.4 -83.15,115.09z"/>
  <path class="fil0" d="M20339.43 14486.39c11.25,135.32 49.46,-27.22 90.26,174.07 16.25,80.19 107.37,321.55 -57.22,321.55 -106.35,0 -111.92,-119.68 -127.98,-202.44 -66.35,-341.8 -17.58,-99.21 -4.19,-260.14 -88.9,1.98 -134.87,33.05 -231.29,33.05l0 66.08c95.95,7.98 49.84,12.99 108.67,254.79 41.62,171.05 84.71,191.26 221.75,191.26 302.85,0 195.2,-290.91 174.63,-389.66 -46.18,-221.67 3.98,-81.92 7.09,-221.6 -63.31,5.27 -118.41,27.78 -181.72,33.04z"/>
  <path class="fil0" d="M14854.6 15361.98l-49.56 0 0 -198.25c118.39,0 115.64,14.33 115.64,132.17 0,38.67 -27.41,66.08 -66.08,66.08zm-231.29 -198.25l49.57 0c0,88.12 -0.74,176.56 0.29,264.63 0.44,38.31 5.93,91.35 -5.59,126.58 -32.4,99.15 -41.19,-33.87 -44.27,104.41l247.81 0 0 -66.08 -65.44 -18.54 -0.64 -130.14c373.1,0 302.12,-346.93 99.12,-346.93l-280.85 0 0 66.07z"/>
  <path class="fil0" d="M17530.93 14932.45l0 165.21 66.08 0c8.5,-102.13 41.92,-99.13 148.69,-99.13 -17.76,37.01 -27.47,76.57 -44.64,120.57 -17.08,43.78 -29.62,73.42 -47.42,117.79 -32.74,81.58 -73.15,154.72 -73.15,257.26 116.91,-9.73 277.27,-46.9 396.49,-49.56l0 -165.21 -66.08 0c-11.94,51.27 -21.09,47.85 -33.04,99.12 -83.03,0 -73.97,14.86 -148.68,16.53 45.68,-86.35 181.72,-406.69 181.72,-495.62 -137.24,0 -242.72,33.04 -379.97,33.04z"/>
  <path class="fil0" d="M18323.92 14849.85c29.99,112.34 37.44,-19.12 67.62,114.11l43.49 316.6c-7.67,70.11 -0.28,-1.32 -23.66,53.54 -5.99,14.06 -44.61,44.4 11.67,44.4 72.5,0 185.34,-10.99 231.29,-33.04 -32.52,-121.78 -75.03,58.23 -99.12,-231.29 166.11,0 33.77,36.99 148.68,49.56 24.44,-50.92 0,-68.19 0,-181.72l-66.08 0c-5.94,71.37 -2.7,66.08 -99.13,66.08 0,-87.96 -14.9,-92.4 -16.52,-165.2 67.89,-5.64 36.91,-16.53 99.13,-16.53 79.86,0 28.29,59.29 115.64,82.61 36.78,-65.46 6.56,-86.44 0,-165.21 -59.43,1.33 -377.96,49.27 -413.01,66.09z"/>
  <path class="fil0" d="M11401.81 15048.09c164.84,38.41 -24.08,-66.08 181.72,-66.08 0,120.84 -39.41,291.04 -49.56,413.02 -78.84,8.62 -27.87,-22.66 -66.08,49.56 47.85,22.97 187.6,33.04 264.33,33.04 -5.38,-64.58 10,-50.18 -49.57,-66.09 0,-141.23 33.05,-252.05 33.05,-413.01 86.84,1.94 97.18,12.28 99.12,99.13l66.08 0c30.86,-210.12 40.36,-146.06 -186.78,-176.67 -331.29,-44.66 -254.26,-36.24 -292.31,127.1z"/>
  <path class="fil0" d="M19463.83 14668.12c0,126.04 8.66,135.23 49.57,165.2 84.18,-61.67 -10.36,-112.47 132.16,-115.64 2.81,125.84 56.12,276.74 66.08,396.49 -59.55,15.91 -44.19,1.51 -49.56,66.09 119.59,0 139.18,-33.04 247.81,-33.04l0 -66.09c-82.84,-6.89 -61.77,-14.02 -89.62,-174.7 -13.3,-76.86 -36.71,-151.64 -42.54,-221.79 87.34,0 24.63,-0.12 49.56,-16.52 65.52,48.01 16.39,74.34 115.64,82.6 0,-81.09 -7.56,-112.1 -33.04,-165.2l-446.06 82.6z"/>
  <path class="fil2" d="M6941.26 14354.23c0,161.32 280.84,206.33 280.84,-16.52 0,-42.04 -8.49,-62.18 -30.5,-85.14 -92.28,-96.29 -250.34,-23.85 -250.34,101.66z"/>
  <path class="fil2" d="M22090.6 14354.23c0,161.76 280.85,210.09 280.85,-33.04 0,-133.64 -280.85,-171.62 -280.85,33.04z"/>
 </g>
</svg>
